<?xml version="1.0" encoding="UTF-8"?>
<svg id="Layer_2" data-name="Layer 2" xmlns="http://www.w3.org/2000/svg" viewBox="0 0 143.44 106.59">
  <defs>
    <style>
      .cls-1 {
        fill: #7ec9a6;
      }
    </style>
  </defs>
  <g id="Layer_1-2" data-name="Layer 1">
    <g>
      <path class="cls-1" d="M143.4,39.11c-.07-.57-.24-1.81-.45-2.3-.21-.49-.68-.57-.68-.57,0,0-.5-3.8-.6-4.83-.09-1.03-.57-5.66-.91-7.32-.34-1.66-1.27-2.83-1.83-3.3h0c-.72-.79-2.67-2.57-5.7-3.8-.42-1.13-1.17-2.41-2.35-2.83-.06-.6-.12-1.19-.12-1.42.29-.72.23-1.4.23-1.4,0,0,.33.03.49-.05.16-.08.31-.3.4-.43.09-.14.17-.46.21-.65.04-.19-.01-.43-.03-.57-.02-.14.05-.32.1-.47.05-.15.03-.77-.03-.93-.06-.16-.12-.53-.31-.56.09-.17.11-.52.11-.52,0,0,.09.17.12.34.06-.3-.09-.76-.09-.76l.1.1s-.1-.36-.09-.59c0-.23-.07-.5-.07-.5l.15.03s-.14-.11-.18-.44c-.05-.34-.31-.81-.4-1.02-.09-.21-.36-.34-.36-.34l.31-.06s-.35,0-.45-.15c.19.04.37-.06.49-.14-.23.09-.49-.03-.49-.03,0,0,.02-.17.04-.32.03-.16.15-.28.3-.36-.18-.04-.37.02-.37.02,0,0,.05-.12.05-.27-.07.17-.16.21-.24.25.05-.14.04-.33.04-.33,0,0-.04.1-.14.09-.04-.14.07-.24.07-.24,0,0-.12,0-.2.05.04-.08,0-.23,0-.23,0,0-.05.05-.13.13.05-.36-.2-1.03-.2-1.03,0,0,.12.55.06.87-.05-.28-.24-.51-.44-.65-.09-.16-.19-.29-.31-.34.07.08.13.17.18.25-.13-.07-.24-.1-.3-.08.11.04.24.13.36.23.09.22.1.4.1.4,0,0-.15-.41-.25-.46.08.16.15.28.1.52-.01-.19-.15-.42-.15-.42,0,0,.03.11,0,.33-.06-.3-.3-.62-.3-.62,0,0,.08.12.05.35-.04-.24-.28-.45-.28-.45,0,0,.07.19.12.37-.14-.25-.49-.53-.68-.63-.19-.11-.43-.42-.52-.67,0,.24.34.79.34.79l-.31-.42s.1.28.15.42c-.18-.29-.51-.58-.64-.6.22.17.38.48.38.48l-.42-.31s.03.07.08.18c-.12-.04-.26-.22-.26-.22,0,0,.05.19.18.27-.21-.21-.66-.14-.83-.36-.17-.23-.29-.24-.45-.29-.16-.05-.34-.27-.34-.27,0,0,.15.27.22.41-.14-.12-.37-.22-.37-.22,0,0,.11.11.16.28-.2-.21-.41-.32-.41-.32l-.03.14-.14-.29s.08.21.05.39c-.04-.13-.22-.29-.22-.29,0,0,.04.14.06.3-.08-.17-.41-.34-.41-.34,0,0,.3.33.4.54-.17.05-.26-.24-.39-.35.06.19-.02.39-.02.39,0,0-.07-.09-.09-.2-.02-.11,0-.35-.13-.4.07.16.04.27,0,.59-.1-.15-.29-.37-.29-.37,0,0,.16.32.11.48-.24-.35-.58-.4-.58-.4,0,0,.33.18.39.34-.09-.03-.22-.04-.36-.01-.09-.07-.21-.12-.23-.13.02,0,.1.05.17.14-.05.01-.1.04-.14.06-.12-.1-.26-.13-.26-.13,0,0,.14.07.19.18h0s-.03.02-.04.04c.01,0,.03-.02.04-.03.07.1.36.19.47.31-.16-.07-.33-.12-.5-.14-.11-.16-.27-.34-.27-.34l.15.31s-.21-.27-.37-.31c.09.11.16.24.19.31h-.01c-.05-.07-.17-.2-.27-.18.08.05.13.12.17.19-.17.01-.31.05-.39.11.07-.01.13-.02.2-.02-.03.05-.07.14-.03.23-.17.04-.42-.16-.49-.23-.05.19.12.3.12.3,0,0-.07-.02-.19-.05-.12-.04-.27-.12-.44,0,.19,0,.34.1.45.25-.22.04-.42-.06-.42-.06,0,0,.13.1.12.21-.19.01-.31-.18-.31-.18,0,0,.09.18.15.28-.24-.05-.35,0-.35,0,0,0,.14-.02.21.06.07.08.24.15.38.15-.79.06-1.16.49-1.16.49,0,0,.58-.23.81-.22-.37.1-.51.21-.55.28-.2.06-.32.12-.39.18.85-.23,1.37.02,1.37.02,0,0-.43-.09-.62-.01-.19.08-.33,0-.33,0,0,0,.07.15.15.16-.28-.05-.58-.04-.72.17.25-.06.35,0,.35,0,0,0-.28.03-.34.14.19-.07.38.14.49.18.11.05.46.04.61.09-.29.13-.67,0-.67,0,0,0,.19.09.32.12-.39.06-.56-.15-.56-.15l.04.11s-.3-.15-.34-.29c0,.23.22.36.22.36,0,0-.22,0-.27-.07.2.24.66.37.66.37,0,0-.29.07-.4.15.25-.07.7-.06.7-.06,0,0,.06.05-.2.15-.08.03-.17.07-.25.1-.1-.05-.2-.09-.27-.08.09.03.16.07.22.11-.07.03-.13.06-.19.09-.08-.03-.19-.05-.32-.06.07.02.15.06.23.1-.06.03-.1.06-.13.1.06-.03.11-.05.16-.08.16.1.29.2.29.2l-.36.21s.24-.04.39-.09c-.15.16-.53.26-.53.26l.15.02-.04.12s.21-.13.34-.19c-.04.25-.32.43-.32.43,0,0,.12-.05.22-.08-.1.27-.51.73-.51.73,0,0,.31-.15.42-.33-.16.26-.15.48-.15.48,0,0-.14.3-.08.49.03-.09.17-.41.17-.41,0,0-.02,1.05,0,1.23.02.18.25.52.2.92-.05.4.03.57.03.57,0,0-.03-.12.05-.25.06.19-.05.53-.18.67.16-.06.34-.25.34-.25,0,0,.05.42.11.59-.02-.09.06-.4.06-.4,0,0,.02.34.1.39,0,0,.05.56.05.66s.13.48.19.71c.06.23.1.71.16.91.06.2.27.38.37.39.1,0,.28,0,.36-.2,0,0,.53,1.49.78,2.03,0,0,.01.09.03.24-.32.06-.57.13-.67.19-.62.38-.81,1.43-1.1,1.62-.29.19-.29.57-.29.57,0,0-1.43.86-2.72,1.33-1.29.48-3.95,1.72-4.1,2.1-.14.38-1.83,5.3-1.94,6.84-.11,1.54-.18,5.36-.18,5.36,0,0-.61-.04-.86.64-.25.68-.82,2.89-.89,3.36-.06.38.5,1.06,1.08,1.34-.12.9-.37,2.04-.42,2.85-.07,1.21-.43,4.53-.41,6.65.02,2.12-.38,6.39-.4,6.81-.02.43-.6,2.33-.6,2.83s.24,2.33.38,2.79c.14.45.79,1.74,1.1,1.95.31.22.95.36.95.36,0,0,.55.36.88.4.33.05.52-.9.52-1.17.1-.12.12-.52.07-.67-.05-.14.19-.83.24-1.07.05-.24.12-.69.14-1.19.02-.5.24-.98.24-1.6s-.52-2-.6-2.36c-.07-.36-.64-1-.64-1.29s.18-1.29.29-1.93c.11-.64.36-2.97.46-3.57.11-.61.89-2,1.21-3.25.32-1.25.43-3.18.68-4.14.12-.44.16-.7.18-.93.22.06.39.09.46.06.27-.1.49-.52.63-.94.06.19.12.36.19.52-.06.29-.1.54-.11.7-.04.58-.64,1.79-.82,3.18-.18,1.39-.47,3.75-.75,5-.28,1.25-.68,2.72-.75,3.47-.07.75-.18,2.04-.18,2.47s-.03,1.5.11,1.82c.05.12.27.35.53.58-.16.63-.35,1.31-.35,1.31,0,0-.18,1.36.04,2.43.21,1.07.25,1.97.25,1.97-.34.96-.21,1.34-.22,1.32-.06-.28.11,1.57.11,1.57,0,0-.68,1.72-.61,2.43.07.72.29,3.29.39,4.29.11,1,.07,2.43.07,2.79s0,.71-.14.75c-.14.04-.11.82.22,1.72.32.89.11,2,.5,2.54.39.54.32,2.79.54,3.86.21,1.07-.14,6.36.32,7.33.46.97,1.57,1.5,1.57,1.72s-.93.79-1.32,1.18c-.39.39-.07,1.18.04,1.39.11.22.71.82.82,1.11.11.29.07.57.29.68.01,0,.03,0,.05.01-.04.28-.09.59-.17.88-.23.82-1.02,2.13-1.3,2.66-.29.54-.54,2.05-.45,2.63-.11.7.18,1.54.86,1.88.68.34,1.84.64,3.36.16,1.52-.48,1.82-1.54,1.95-2.13.13-.59.77-3.02.82-3.45.05-.43.38-1.05.47-1.5.06-.3,0-.95-.11-1.57.26-.12.5-.26.68-.39.61-.46.61-1.72.79-1.82.18-.11.14-.71.07-1.04-.07-.32.39-.68.39-.93s-.68-1.39-.89-2c-.22-.61-.61-2.5-.68-3.04-.07-.54-.46-3.79-.46-4.4s0-3.54-.14-4.04c-.14-.5-.68-1.64-.79-1.93-.11-.29.43-1.18.43-1.43s-.36-1.43-.43-2.07c-.07-.64,1.43-1.97,1.79-2.75.36-.79.5-3.36.5-4.75s.68-4.97.68-4.97c0,0,.54,7.18.71,8.36.18,1.18.54,6.15.54,6.54s0,1.39.03,1.82c.04.43,0,.75-.07,1.32-.07.57-.32.96-.32,1.11s.18.72.18,1.21-.18,1.04-.54,2.9c-.36,1.86.04,4.82.25,6.33.21,1.5-.57,3.25-1,4.11-.43.86-.75,1.72-.86,2.32-.11.61.18,1.36.36,1.75.08.17.28.31.48.41-.37,1.13-.41,2.34-.4,2.51.02.6.05.91.14,1.27.09.36.46.91.73,1.07.27.16.11.52.54.93.43.41,1.38.7,2.14.82.77.13,2.95.11,3.52-.05.57-.16.52-.88.45-1.18.11-1.57-.47-1.95-.64-2.63-.15-.56-.27-1.27-.43-1.89.47-.17.55-1.33.55-1.33,0,0,.64-.5.75-.71.11-.21.43-2.04.21-3.22-.21-1.18.11-8,.18-8.68.07-.68,1.29-1.93,1.54-2.5.25-.57-.18-2-.21-2.43-.04-.43.68-1.32.79-1.43.11-.11-.47-1.11-.79-1.82-.32-.71.04-4.18.18-4.86.14-.68,1.21-7.79,1.39-8.79.11-.62.22-2.6.28-4.36.51-.27.91-.52,1.01-.63.29-.33-.14-3.81-.14-3.95s0-4.1-.1-5.24c-.09-1.14-.29-4.14-.38-4.86-.09-.64.48-4.09.67-5.75.16.79.35,1.71.45,2.15.16.69.59.9.95.93.06.57.13,1.2.2,1.75.18,1.47.61,5.26.54,6.7-.06,1.44-.94,3.23-1.06,4.09-.12.87-.11,1.37.02,1.98.13.61.31,1.63.39,1.91.09.28-.11.94.19,1.18.3.25.57.04.57.04l-.28.47s-.97.22-1.19.47c-.23.25-.29.78.17.83.46.05,1.32-.27,1.32-.27,0,0,.31.05.52,0,.21-.06,1.45-.56,1.61-1.07.16-.51.51-1.89.62-2.54.11-.65.06-.91-.12-1.58-.18-.67-.35-2.41-.21-3.03.14-.62.11-.61.1-1.4,0-.79.2-2.23.36-3.85.13-1.29.43-4.33.39-6.37.08-.03.16-.05.22-.07.84-.33.77-1.65.7-2.22ZM121.36,2.51c.24-.17.58-.19.74-.12-.32.04-.56.08-.74.12ZM120.99,4.46s-.09-.06-.17-.09c.07-.03.14-.05.2-.06.09.08.12.15.12.15,0,0-.07.06-.15,0ZM121.31,4.39s-.1-.03-.19-.08c.19-.01.23.07.19.08ZM123.18,1.32l-.1-.27s-.07.11-.07.24l-.05-.25c.06,0,.12,0,.18,0,.06.15.05.29.05.29ZM130.05,2.18c-.03-.13-.07-.27-.13-.41.12.14.19.29.13.41ZM124.25.9c-.15,0-.26-.05-.35-.15.18,0,.35.06.35.15ZM123.63.78s.1-.02.15-.02c.09.14.27.23.27.23,0,0-.29-.1-.42-.21ZM124.14,1.35c-.06,0-.48-.1-.57-.28.29.05.5.15.57.28Z"/>
      <g>
        <path class="cls-1" d="M41.85,55.47s.24-.28.26-.58c.02-.3-.69-.82-1.04-1.3s-.65-.93-.82-1.45c-.17-.52-.32-.65-.3-.99.02-.35-.13-.76-.5-1.23-.37-.47-.89-1.82-1.21-3.11-.32-1.3-1.36-5.75-1.66-6.87-.3-1.12-1.58-3.37-1.99-5.17-.41-1.79-1.15-3.67-1.32-4.6-.17-.93.3-3.37-.3-5.4-.61-2.03-1.88-3.15-2.68-3.18-.34,0-.64,0-.94,0,.16-.12.27-.22.27-.22,0,0-.32.1-.72.17-.27,0-.99-.04-2.02-.35-.01,0-.03-.02-.04-.03,0-.11-.02-.23-.03-.35,1.52.64,3.1.38,3.44.19-.91.24-1.75-.02-1.75-.02,0,0,.43-.11.63-.24-.95.08-1.76-.1-2.36-.37,0-.07-.02-.15-.03-.23.31.05.58,0,.83-.09-.28-.02-.58-.09-.87-.18-.02-.12-.04-.24-.06-.36.13,0,.24-.02.34-.05-.14-.04-.26-.09-.37-.14-.15-.86-.36-1.74-.56-2.56.43,1.36.8,2.01,1.08,2.14-.37-.39-.73-1.84-.97-2.87.4,1.82,1.72,2.54,2.73,2.76.16.48.08.67.03.93.15-.28.17-.59.11-.9.1.02.19.03.28.04.1.3.15.59.19.84.02-.28,0-.56-.07-.83.37.03.64-.02.7-.08-.28-.03-.52-.08-.76-.13-.04-.13-.08-.26-.14-.38.3.03.53-.02.63-.05-.27-.02-.5-.06-.71-.11-.4-.86-1-1.51-1-1.51,0,0,.5.24,1.43.6.93.37,1.19.69,1.69,1.02-.37-.73-1.3-.99-1.3-.99,0,0,.97.11,1.21,0-1.69.04-3.03-1.02-3.42-1.32-.39-.3-.84-1.66-.84-1.75s-.32-1.23-.43-1.38c-.11-.15-.67-1.06-.67-1.3s-.28-.63-.48-.97c-.19-.35-.26-1.64-.32-1.88-.07-.24-.39-1.08-.43-1.32-.04-.24-.54-.95-.78-1.08-.24-.13-.93-.91-1.08-.97-.15-.06-.54.09-.54.09,0,0,0-.28.07-.3-.17-.04-.63-.02-.63-.02l-.04-.22s-.32-.04-.47.13c-.5-.37-1.04-.22-1.04-.22,0,0-.02.06,0,.15-.56-.11-.82-.04-.82-.04,0,0,.09.09.26.11-1.47.22-3.11,1.32-3.98,2.7-.86,1.38-1.4,2.92-1.69,3.59-.28.67-1.25,1.17-1.25,1.17,0,0,.58-.04.87-.32-.43.54-1.28,1.77-1.41,2.29-.13.52-.35.78-.35.78,0,0,.26-.13.43-.6.17-.48.78-1.06,1.1-1.53-.15.45-.67,1.82-1.51,3.31-.84,1.49-1.1,2.38-1.1,2.38,0,0,.26-.41.56-.84-.38.81-.56,1.43-.64,1.91-.59.37-1.48.6-2.24.57.72.24,1.54-.03,2.22-.42-.01.12-.02.22-.02.32-.78.39-1.56.38-1.56.38,0,0,.33.17.93.09-.45.24-.8.24-1.4.37.73.06,1.41-.16,1.99-.5.02,0,.04,0,.06,0,.02.2.06.37.09.5,0-.16,0-.33.02-.5,1.11-.12,2.04-1.03,2.38-1.56-.09.97-1.49,1.73-2.2,2.01.99-.11,1.88-.56,2.44-1.17-.08,1.18-2.17,1.43-2.77,1.56.26-.02,1.12.05,1.39-.02-.48.32-1.43.37-1.79.37,1.51.24,3-.5,3.57-.97-.86.99-2.14,1.34-2.64,1.36.09.02.21.04.35.05-.48.12-.78.17-.78.17,0,0,0,.01,0,.03-.38.03-.81.05-1.4.31-.82.37-2.21,2.81-2.36,4.97-.15,2.16.22,3.05-1.01,6.61-1.23,3.57-2.25,5.6-2.57,7.52-.32,1.92-.86,5.21-1.08,6.59-.22,1.38-.56,2.36-.73,2.94-.17.58-.37,1.02-.43,1.32-.07.3.11,1.08.04,1.53-.06.46-.26,1.21-.43,1.86-.17.65-.5,1.36-.58,1.84-.09.48.39,1.06.71,1.45.04.5.17,1.3.3,1.56.13.26,1.1.99,1.3,1.1.2.11.65-.09.86-.13.22-.04.19-.28.09-.45-.11-.17-.39-.34-.39-.34,0,0,.18-.02.32-.15.07.05.15.08.25.1.37.06.52-.09.41-.93-.11-.84-.11-1.9.11-2.83.22-.93-.02-1.86-.13-2.36-.11-.5-.47-.91-.28-1.84.19-.93.5-2.36,1.69-4.65,1.19-2.29,2.07-4.75,2.61-5.62.54-.86,1.02-1.73,1.1-2.42.09-.69.22-1.25.43-1.77.16-.39,1.17-3.05,1.96-4.91.11.4.23.76.35,1.06.35.91.61,2.85.52,3.63-.22.39-.09.78-.09.78l.17,1.82s-1.12,1.08-1.21,1.73c-.09.65-.65,1.64-1.25,2.72-.61,1.08-1.25,2.81-1.51,5.01-.26,2.2-.78,5.19-1.04,6.31-.26,1.12-.65,3.54-.73,4.63-.09,1.08-.69,2.29-.65,3.24.04.95-.43,4.88.09,4.93.17.13,1.21-.13,1.47,0,.26.13,1.82.56,2.94.52.2,0,.46,0,.76.03.24.84.5,1.78.59,2.25.17.96.42,2.97.39,3.94-.03.97-.12,3.07-.25,3.99-.13.92-.09,2.44.14,3.94.23,1.5.85,4.07,1.06,5.01.21.94,1.06,3.58,1.25,4.29.2.71.93,2.92,1.06,3.46.13.54.22,1.04.17,1.35-.04.31-.15.85-.07,1.26.09.41.26,1.05.25,1.43-.01.38-.28,1.51-.48,1.8-.19.04-.48.23-.54.37-.06.14.03.43.03.43,0,0-.27.28-.38.43-.11.15-.17.31-.28.43-.11.12-.26.32-.09.57-.03.09-.27.35-.27.35-.11,0-.13.3-.13.3,0,0-.07.35.18.41.25.07,2.82.44,3.53.44s1.6-.12,1.84-.17c.24-.05.33-.2.42-.32.09-.13-.02-.37-.03-.62-.01-.25-.06-.56-.03-.78.01-.08.03-.2.05-.35.13-.14.19-.42.09-.71,0-.05.01-.1.01-.15.03-.42-.28-1.25-.28-1.74s.12-1.88-.1-2.55c-.22-.67-.6-1.25-.64-2.29-.03-1.04.08-4.8.08-5.63s-.01-2.97,0-3.93c.01-.96.13-2.78-.21-4.27-.33-1.49-.71-3.17-.68-4.06.03-.9.38-2.97.36-4.29-.01-.74-.11-2.25-.2-3.47.28.06.55.13.8.21.52.16,1.27.22,2.07.21.04,1.45.12,3.53.3,4.17.26.91.71,2.87.69,3.16-.02.28-.56,1.6-.45,2.33.11.74.73,1.97.8,2.59.07.63.26,3.62.29,4.53-.34.23-.65,1.36-.23,2.19.42.83.96,2.17,1.05,2.89.1.71.13,1.28.13,1.28,0,0-.11-.07-.19.15-.08.21-.13,1.17-.02,1.36-.15.42-.37.94-.24,1.9.02.78.24,2.06,1.05,2.88.81.83,2.8.26,3.53-.42.73-.68,1.22-1.93,1.14-2.8-.08-.88-.99-3.26-.99-3.26,0,0,.1-.42.05-.66-.05-.24-.2-.6-.2-.6,0,0-.23-.7-.24-1.43-.02-.73-.07-1.73-.13-2.3-.06-.57-.75-1.13-1.2-1.46.18-.65,1.12-3.41,1.66-5.01.54-1.6.45-2.92.35-4-.11-1.08-.32-1.28-.3-2.7.02-1,.19-4,.29-5.7.67-.14,1.19-.29,1.33-.42.39-.39.35-1.17.52-1.34.17-.17.86-.69.73-1.51-.13-.82-.43-4.15-.56-5.23-.13-1.08.22-2.72.35-3.28.13-.56.3-.87.22-1.34-.09-.47-.91-2.59-.91-3.41s.13-3.03.04-3.67c-.09-.65-.52-2.85-.69-3.63-.17-.78-.22-2.59-.43-3.24-.22-.65-1.04-2.51-1.04-2.51,0,0,.04-1.04.17-1.69.13-.65.39-1.04.35-1.56-.04-.52.13-2.9.22-3.33.08-.43.17-.35.21-.52.03-.11.11-.56.17-1.28.57.73,1.16,1.56,1.27,2.04.24.97.39,1.32.73,2.25.35.93.3,1.49.35,1.95.04.45.32,1.17.71,2.05.39.89,1.21,3.13,1.9,4.13.69.99,2.42,4,2.61,4.56.19.56.41,1.62.8,2.79.39,1.17.11,1.32.04,1.88-.07.56.28,1.9.67,2.42.39.52.43,1.25.52,1.9.08.65.34.93.84.91.5-.02.48-.82.48-.82,0,0,1.04.06,1.36-.22.32-.28.26-1,.26-1,0,0,.24-.17.37-.35.13-.17.02-.52.02-.52,0,0,.43,0,.5-.35.06-.35-.32-.95-.32-.95ZM29.24,18.64c-.09-.02-.18-.04-.26-.07-.04-.12-.08-.24-.13-.36.08.03.16.04.23.06.06.13.11.25.16.37ZM28.98,18.09c-.09-.03-.16-.06-.24-.09-.13-.26-.28-.53-.45-.8.3.28.51.58.68.89ZM28.47,17.87c-.35-.21-.49-.5-.45-.8.18.31.33.57.45.8ZM28.6,18.12c.07.15.14.28.19.4-1.82-.59-2.11-1.76-2.13-2.68.6,1.37,1.33,2.01,1.94,2.28ZM11.94,17.33c-.13.84-.43,1.19-.8,1.88-.07.12-.17.24-.3.35.22-.75.6-1.52,1.1-2.23ZM10.78,19.77c.49-.32.88-.69,1.05-.95-.24.64-.68,1.05-1.13,1.32.02-.12.05-.24.08-.37ZM10.81,20.36c.66-.46,1.15-1.04,1.37-1.41.43-.73.61-.97,1.02-1.45-.47,1.68-1.59,2.5-2.39,2.86ZM2.28,59.34s.24-.89.37-.82c.12.06.21.96.23,1.48-.28-.34-.6-.66-.6-.66ZM26.75,21.1c-.31-.24-.57-.5-.65-.66.19.12.38.22.57.31.03.12.06.24.08.34ZM26.54,20.26c-.24-.13-.43-.28-.57-.42.19.12.37.2.53.25.02.06.03.11.04.17ZM26.41,19.77c-.54-.22-.98-.55-1-.88.38.34.68.51.92.58.03.1.06.2.09.3ZM25.47,16.53c.22.77.5,1.72.76,2.6-1.14-.68-.85-1.71-.76-2.6Z"/>
        <path class="cls-1" d="M10.48,21.42s-.08,0-.08.02c.02,0,.05-.01.08-.02Z"/>
      </g>
      <path class="cls-1" d="M109.76,63.37c-.03-.18-.16-.4-.27-.78-.11-.38-.45-1.7-.57-2.45-.11-.75-.25-2.6-.41-3.83-.16-1.23-.06-6.9-.34-8.07-.28-1.17-1.61-3.99-1.85-4.67-.19-.54-.25-1.47-.35-2.23.2-.16.35-.33.37-.4.04-.16-.27-1.33-.32-1.61-.06-.28-.09-.69-.17-1.09-.08-.4-.15-1.53-.17-1.8-.01-.27-.33-2.63-.59-3.83-.17-.75-.25-.89-.38-.97-.23-.36-1-.8-1.49-1.23-.55-.48-2.23-1.48-2.52-1.71-.29-.23-.94-.58-1.36-.87-.2-.54-1.26-.59-1.93-.56-.32-.23-.69-.83-.91-2.35.18.03.42-.11.49-.24.07-.13.09-.32.33-.57.24-.24.31-.4.46-.6-.02.1-.03.27-.03.27,0,0,.07-.29.23-.56.16-.27.46-.68.52-1.29.18.05.3-.14.66-.96.36-.83.72-3.07-.38-4.84-1.1-1.76-4.02-2.53-4.82-2.55-.8,0-2.85,1.05-4.05,2.62-.79-.25-3.38-.72-3.38-.72,0,0-.4-.29-1.01-.27-.61.02-1.28.77-.61,1.8.5.75,1.17,1.47,3.92,1.79.05.22.2.46.2.46,0,0,0,.16.09.22l.07.31s-.03.03-.05.1c-.02.07-.06.15-.1.19-.04.04-.28.47-.28.47,0,0-.42.4-.48.56-.07.16-.13.43.3.86,0,.21-.01.67-.01.67,0,0-.21.28-.19.4.02.12.15.37.15.37,0,0-.11.12-.13.22-.02.1.2.43.2.43,0,0,.11.43.11.59,0,.16-.1.85.06,1.03.16.18.37.53,1.59.81.14.03.26.05.39.07,0,0,0,.02,0,.03.02.06-.05.12-.16.18-.48-.24-.84.11-.84.11,0,0-.39.23-.58.26-.19.03-1.16.45-1.61.64-.45.19-1.71.94-2.23,1.23-.52.29-2.23.84-2.61,1.42,0,0,0,0,0,0-.13.1-.27.23-.4.42-.45.63-1.14,1.99-1.26,2.44-.12.45-.81,2.08-.92,2.45-.11.37-.62,1.95-.74,2.34-.12.38-.26.74-.17.87.09.13.3.35.89.48-.21.66-.54,3.13-.7,3.74-.16.61-.8,2-.92,2.8-.12.8-.46,2.07-.42,3.51.04,1.44.64,4.33.78,5.23.14.91.24,1.99.26,2.46.02.47.04.84.09.99.04.15.14.7.1,1.23-.05.53-.3,1.53-.31,1.83,0,.31.19.91.24,1.19.06.28.19.7.28.88.09.18.64.71.83.89.19.18.98.25,1.18.39.21.13.59.34.93.28.34-.06.33-.43.21-.69.23-.14.19-.56-.03-.79-.22-.23-.61-.66-1.04-1.03-.08-.16-.2-.33-.2-.33,0,0,.06-.26-.07-.5-.12-.25-.07-.41-.07-.41,0,0,.07-.26-.02-.42.1-.08.3-.22.3-.22l.33-.18c-.04.4.26,1.2.61,1.5.35.3.74.04.78-.17.04-.21-.09-.83-.07-1.13.03-.31-.15-.44-.22-.83-.07-.39.02-.61-.21-1.05-.23-.44-.47-.67-.69-.88-.22-.2-.54-.42-.54-1.4,0-.98.17-2.69.5-4.36.34-1.67.37-2.36.48-3.33s.32-1.85.72-2.93.81-2.51.89-2.9c.07-.38.56-1.7.56-1.7,0,0,.03.08.23,0,.08-.04.19-.23.3-.44.07.26.13.52.16.66.06.35.13,1.71.13,2.23s-.35,1.55-.45,1.97c-.1.42.1,1.39.13,2.32.03.93-.29,2.71-.39,2.9-.1.19,0,1.55,0,1.55l-.39.39c-.1.1-.03,1.39.03,2.03.06.64-.32,1.71-.42,2.06-.05.17.14.3.41.42-.1.78-.31,1.87-.33,2.26-.02.5.13,1.65.21,2.15.08.5,0,.94-.11,1.45-.11.52-.02,1.26-.03,1.77-.02.52,0,1.29,0,1.29,0,0-.29.21-.36.31-.06.1-.11.29-.16.81-.05.52,0,1.45.11,1.56.11.11.26-.08.26-.08l.27.31s-.05,1.21.03,1.71c.08.5.32,2.65.53,3.49.21.84.68,1.39.69,1.44.02.05.05.13.06.34.02.21.08.31.08.31,0,0-.11.98.02,1.36.13.37.94.6,1.32.66.21.03.63.01,1.03-.02.03.28.05.56.05.79,0,.76-.55,3-.11,5.05.44,2.05,1.99,7.07,2.32,8.03.29.84.68,2.1.72,3.13-.78.34-.47,1.32-.36,1.6-.27.18-.42,1.15-.47,1.5-.05.35-.02.94-.15,1.24-.13.31-.49.84-.65,1.06-.16.23-.26.47-.19.68-.11-.02-.16.61-.14.74.02.13-.23.34.29.42.52.08,4.07.11,4.07.11,0,0,.03.16.08.23.05.06-.16.26-.1.37.06.11.23.08.6.16.37.08,2.63.21,2.95.22.32.02,1.31.13,1.63-.26.32-.39.52-.37,1.26-.42.74-.05,1.81-.77,1.69-1.58-.11-.81-.56-2.31-1.23-2.65-.66-.34-1.11-.42-1.11-.42,0,0-.27-.42-.42-.68-.15-.26-.05-.49.02-.86.06-.37.02-.9-.39-1.05-.1-.03-.18-.03-.25,0,.11-.86.51-1.93.66-2.4.18-.58,1.16-4.73,1.56-6.94.4-2.21.52-4.7.31-5.55-.21-.86-.42-1.47-.37-2.37.02-.31.03-.78.05-1.26,1.43.04,1.81-.35,1.87-.6.07-.27-.13-.9-.11-1.18.02-.27-.11-.37-.11-.37l.02-.19s.26-.02.4-.15c.14-.13.44-1.28.71-1.78.27-.5.5-2.36.64-3.05.15-.69.02-1.34.03-1.87.47-.16.21-1.68.26-2.13.05-.45-.4-1.44-.4-1.44,0,0-.08-.48-.06-1.1.02-.61-.18-1.37-.34-1.9.07-.28-.05-.69-.05-.69,0,0,.03-.45.08-.92.05-.47-.05-1.52-.23-2.11-.08-.28-.2-.66-.31-.99.28-.07.45-.11.47-.11.19-.03-.26-.9-.19-1.23.06-.32-.29-.87-.19-1.13.1-.26-1-1.45-.87-1.65.13-.19.29.16.58,0,.29-.16-.06-.84-.1-1.13-.03-.29-1-.9-1-1.16s.32-.61.45-1.13c.13-.52-.42-1.07-.48-1.45-.06-.39-.03-.97,0-1.42.03-.45-.58-2.16-.61-2.65-.03-.48.26-1.16.42-1.55.04-.09.05-.2.05-.31.46,1.33.99,3.74,1.09,5.37.11,1.92,1.4,5.16,1.75,6.06.35.9,1.75,3.89,2.12,5.26.37,1.37.33,1.67.23,2.09-.1.42-.41,1.15-.41,1.67s.37,1.46.45,1.82c.08.37.13.71.08,1.27-.04.56,0,1.07.21,1.19.05.03.11.05.16.05,0,.1,0,.2.02.27-.51.32-.64.62-.64.72s.13.25.23.24c-.06.16-.03.55.13.61.16.06.52-.17.52-.17,0,0,.13.08.25.06.13-.03.79-.35.88-.45.08-.1.93-1.02,1.06-1.3.13-.28.2-.79.2-1.03s.21-1.02.24-1.17c.03-.16-.09-.86-.11-1.05ZM94.47,95.84c-.12-.48-.36-1.19-.56-1.67-.05-.32-.03-1.6.05-2.32.08-.73.02-2.55-.02-3.26s-.1-1.94-.02-2.45c.08-.52.08-1.66-.1-2.9-.18-1.24-.47-3.02-.45-3.31.01-.25.45-2.3.57-3.27.12-.07.23-.15.32-.23.19,1.23.63,2.56.66,2.74.05.29.23,1.26.16,1.61-.18,1.05-.5,4.19-.55,5.36-.05,1.16.21,2.95.37,3.84.16.89.45,3.76.37,4.78-.05.64-.16,1.14-.31,1.58,0-.2-.01-.42-.13-.48-.15-.07-.29-.04-.37,0ZM107.66,65.53s-.05.07-.13.16c.03-.2.05-.38.06-.47.03-.21.07-.4.07-.4v.71Z"/>
      <path class="cls-1" d="M77.97,44.44c-.07-.32-.22-1.41-.33-1.67-.11-.26-.54-.75-.74-.83-.2-.08-.98-.2-.98-.2,0,0-.57-.64-.74-.77-.18-.13-.68-.65-1.1-.12-.18-.16-.41-.21-.54-.09-.14.12-.19.65-.19.65,0,0-.25-.19-.38-.03-.12.16-.06.77.09,1.03-.08,0-.42.3-.2.71.22.41.93,1.26,1.18,1.48.25.22,1.59.85,1.67.89.08.04.32.34.16,1.02-.16.68-.69,1.98-.78,2.34l-.36.66-.64-.59c-.31-.35-.91-1.25-1.3-1.69-.25-.28-.6-.68-.96-1.2.48-.75.82-1.43.82-1.56,0-.28-1.79-1.46-2.52-1.96-.73-.5-3.03-1.74-3.36-1.91-.34-.17-.45-.39-.67-.45-.22-.06-1.29,0-1.85-.17-.56-.17-1.46-.45-1.46-.45,0,0-.63-.42-1.02-.39.15-.09.27-.19.36-.31.21-.3.27-.32.21-.62-.07-.3-.18-.65-.14-.74.03-.09.06-.28.14-.44.09-.16.17-.19.13-.35-.04-.15-.37-.21-.37-.21,0,0-.06-.2.06-.43.12-.23.16-.26.09-.43-.07-.16-.41-.56-.35-.71.07-.15.35-.27.4-.55.05-.28-.11-.44-.47-.71-.36-.27-.56-.71-.63-1-.04-.16.03-.53.11-.83.33-.21.6-.45.75-.61,2.25-.13,2.67-.57,3.03-1.22.36-.65-.09-1.27-.41-1.46-.32-.2-.74-.1-1.12-.05-.39.05-3.02.2-3.02.2,0,0-.61-.58-1.3-.96-.69-.38-1.65-.93-2.3-.89-.66.04-1.7-.07-3.13.37-1.43.43-2.49,1.15-3.15,1.79-.66.64-1.39,2.08-1.59,3.22-.2,1.14.31,2.74.73,3.37.42.63.67,1.12.92,1.36.17.16.31.13.42.05.08.16.15.34.14.47.06-.1.09-.11.09-.11,0,0,.11.65.42,1.01-.05-.13.02-.23,0-.19-.02.03.25.56.63.78-.07-.14-.04-.19-.04-.16,0,.03.51.37.69.41-.03-.11-.11-.17-.11-.17,0,0,.26.15.32.31.07-.06,0-.19.02-.16.02.03.16.21.33.17-.05-.04-.01-.13-.01-.13,0,0,.18.1.2.19.02-.06.06-.21.06-.21,0,0,.19.24.38.52-.29.01-.53.04-.66.07-.39.11-.67,1.12-.9,1.46-.22.34-2.58,1.23-3.03,1.4-.45.17-2.52,2.35-2.75,2.8-.22.45-.95,1.96-.39,2.19.56.22.66,1.15,1.1,1.43.04.03.09.07.14.1-.38.83-.88,1.83-1.08,2.57-.45.47-1.87,1.45-2.51,2-.64.55-1.82.95-2.01,1.05.18-.28.3-.45.13-.6-.17-.15-.73.07-1.04.14-.3.08-.9-.2-1.56.55-.56.22-1.28.75-1,1.13.29.38.34.65.39.98.04.33.22.42.4.55.17.12.05.44.23.63.19.18.29.38.42.55.13.17.49.14,1.03,0,.55-.14.77-.12.96-.31.19-.19.43-.65.39-.83.23-.15.29-.25.95-.42.67-.17,2.77-.45,3.32-.73.55-.28,2.27-1.31,2.45-1.61.13-.22.77-1.56,1.39-3.09.3.24.53.41.53.41.11,1.12,1.12,4.93,1.12,5.49s-.78,2.41-.84,3.25c-.06.84.06,1.34-.06,2.07-.11.73-.5,1.68-.78,2.24-.18.35.15.61.56.79,0,.29.01.55.01.75,0,.59-.92,1.6-.92,2.02s.8,1.01.76,1.47c-.04.46-.8,2.23-.84,2.86-.04.63-.29,2.52-.21,2.86.08.34.04,1.56,0,1.81-.04.25.08.76.13.92.04.17-.29.8-.29.8,0,0-.25.8-.29,1.05-.04.25.04.76.17,1.01.13.25.21.8.38.92.17.13,0,1.43.08,1.93.08.5.06,1.35.2,1.51.14.17.06.64.03,1.01-.03.36.17,2.13.28,2.75.11.62.53,3.42.7,3.59.17.17.48.17.5.34.03.17-.28.98-.45,1.2-.17.22-.92,1.04-.9,1.4.03.36.22,1.91.36,2.21.14.31.87.31.87.31,0,0-.11.14-.22.64-.11.5-1.4,1.46-1.2,2.63-.25.14-.25.87-.17,1.15.08.28.08.34,1.01.34s3.95-.03,4.43,0c.48.03.95,0,1.12-.25.17-.25.08-.64.08-.81s-.11-.53-.11-.53c0,0-.03-.7-.08-1.23.31.11.42.2.53-.25.11-.45.28-2.3.59-3.05.31-.76,1.01-2.8.98-3.22-.03-.42-1.23-4.74-1.32-5.33-.08-.59-.53-2.05-.36-2.44.17-.39.45-.76.31-1.32-.14-.56-.14-2.77.08-2.97.22-.2.59-.7.51-1.23-.08-.53-.87-1.82-.84-2.41.03-.59.36-2.69.59-2.94.22-.25.64-.78.67-.98.03-.2.73-2.13.76-2.33.03-.2.22-.84.31-.79.08.06.42-.14.48.09.06.22-.03.76.08,1.12.11.36.25,2.38.34,2.58.08.2.64,1.96.59,2.24-.06.28.28,1.48.36,1.68.08.2-.06,1.32.06,1.6.11.28.03,1.65.17,1.79.14.14-.17,1.37-.17,1.71s.56.67.51,1.15c-.06.48-.42,1.29-.36,1.6.06.31-.11,1.04-.08,1.32.03.28.2,1.6.2,1.93s-.28.62-.2,1.26c.08.64,1.37,2.66,1.85,3.17.31,1.32.53,3.11.7,4.48.17,1.37,1.01,3.42,2.61,3.53,1.6.11,3.19-1.26,2.94-3.67-.25-2.41-1.68-4.9-1.82-5.74.17-.5.78-1.04.7-1.32-.08-.28-.22-3.59.03-4.26.25-.67.28-1.43.28-1.93s.08-1.01.25-1.29c.17-.28-.06-.9-.28-1.51-.22-.62-1.18-1.77-1.26-1.93-.08-.17.42-2.63.53-3.22.11-.59.39-1.23.45-1.91.06-.67-.25-2.16-.14-2.49.11-.34,1.04-2.21,1.07-2.44.03-.22-.7-1.57-.76-2.35-.06-.78.17-1.88.11-2.44-.03-.34-.07-1.04-.13-1.55.79-.5,1.53-1.01,1.59-1.12.11-.22.11-1.12-.17-1.4-.28-.28-.9-2.97-1.07-3.81-.17-.84-1.51-6.84-1.51-7.51,0-.24-.12-.68-.29-1.16,0,0,.4-1.92.62-1.92.15,0,.77,1.14,1.4,1.23.15.02.32-.11.49-.27.42.8.91,1.6,1.39,2.07.92.91,1.43,1.95,1.83,2.41.4.46,1.88,1.48,2.23,1.49.35.08.82.13,1.42-.58.6-.71,1.12-2.52,1.38-3.07.26-.55.22-1.9.19-2.52-.02-.62,0-1.4.05-1.99.05-.6-.02-1.63-.09-1.95Z"/>
    </g>
  </g>
</svg>