<?xml version="1.0" encoding="UTF-8"?>
<svg id="Layer_2" data-name="Layer 2" xmlns="http://www.w3.org/2000/svg" viewBox="0 0 99.29 102.9">
  <defs>
    <style>
      .cls-1 {
        fill: #7ec9a6;
      }
    </style>
  </defs>
  <g id="Layer_1-2" data-name="Layer 1">
    <path class="cls-1" d="M.02,56.38c.05.15.08.41.38,1.06.3.64.78,1.85.92,2,.14.15.76.5.9.58.14.08.46.32.63.41.17.09.6.23.75.24.15.01.26-.05.29-.17.03-.12-.18-.4-.18-.4,0,0,.38.05.43-.21.01-.08.02-.15,0-.22.19-.1.32-.34.28-.45-.06-.2-.05-.72-.02-1.02.03-.31.06-.32-.01-.92-.08-.6.12-1.21.08-1.59-.05-.38-.24-1.64-.31-1.85-.06-.21-.44-.99-.43-1.42.02-.43.02-1.09.7-2.39.6-1.13,2.65-4.77,3.39-6.02.16.05.27.08.31.07.32-.05.51-.6.69-.96.18-.37.28-1.29.18-1.42,0,0,1.1-2.02,1.29-2.52.18-.51,1.19-3.53,1.19-3.53,0,0-.05,2.75-.28,3.95-.23,1.19-.82,5.28-.73,6.15.09.87.14,3.85.14,3.85,0,0-.6,2.52-.5,3.35.09.83-.41,1.51-.32,2.16.09.64.64,4.18.96,5.37.32,1.19,2.06,5.97,2.06,5.97.14.69.41,1.28,1.28,1.47.02,0,.04,0,.06,0,.27,1.42.62,3.51.66,5.09.07,2.64-.55,4.89.32,7.83.87,2.94,3.03,10.51,3.05,11.43.02.92-.21,1.42-.09,1.88.11.46.34.78.27,1.01-.07.23-.44.41-.64.83-.25.25-.55.73-.3,1.24-.07.02-.46.12-.48.21-.02.09-.12.51,0,.53.11.02,5.19,1.17,5.32,1.15.14-.02.25-.51.18-.6-.07-.09-.67-.48-.67-.48l-.05-.16s.5-.05.57-.67c.07-.62-.21-1.22-.07-1.79.14-.57.18-.57-.07-1.12-.25-.55-.41-1.19-.39-1.45.02-.25-.25-1.54-.46-2.11-.21-.57-.39-2.71-.27-4.11.11-1.4.27-5.32.21-6.13-.07-.8-.44-4.06-.44-4.54s.41-3.19.46-3.85c.03-.42-.2-2.34-.37-3.87.39.14.74.33.95.61.3.4.57.56.89.6-.07,2.87.79,9.77.93,10.57.14.83-.05,1.88-.12,2.57-.07.69-.09,2.55.41,4.31.5,1.77.48,4.61.46,5.83-.02,1.22-.23,3.03-.39,3.56-.16.53-.09,1.26-.09,1.65s-.27.82-.41,1.27c-.15.47-.29,1.52-.16,1.92-.21-.1-.53.14-.52.21.01.07.05,1,.23,1.22.13.16,3.17.3,3.63.36.46.06,1.01-.13,1.37-.28.36-.15.7-.53.53-.78.21-.33.39-.56-.07-1.16-.18-.5-.77-.91-.93-1.01-.16-.1-.05.08-.16-.1-.1-.2.03-1.2.14-1.64.12-.44.05-1.1-.04-1.56-.09-.46-.16-2.06.32-3.42.48-1.35,1.56-7.73,1.7-9.36.14-1.63-.11-2.25-.14-3.83-.02-1.42.53-9.45.64-11.12.24-.19.54-.43.92-.63.69-.37,1.88-.6,2.16-.82.28-.23-.09-2.16-.09-2.71s-1.19-5.78-1.47-7.34c-.28-1.56-1.06-1.93-1.19-2.52-.14-.6-.14-2.3.18-2.85.32-.55-.14-1.38-.28-1.47-.14-.09-.83-1.61-.83-2.3s-.51-2.39,0-2.98c.51-.6.32-.92.14-1.28-.18-.37-.74-.46-.74-1.47s-.46-3.07-.27-3.21c.18-.14.73-.5.83-.92.09-.41.46-2.62.46-2.62,0,0,2.02,6.33,3.76,9.68-.28.14-.09.87.09,1.33.18.46.41.78.87.69.11-.02.38-.1.74-.21.99,1.46,2.88,4.34,3.48,5.31.78,1.25.82,1.91.87,2.33.04.43-.28,1.23-.33,1.45-.05.22-.16,1.48-.18,1.87-.02.38.22.98.19,1.58-.03.5-.01.59.02.79-.18.4-.34.88-.36,1.17-.03.38.08,2.92.08,3.32s.3,1.35.49,1.97c.16.51,1.22,1.03,1.96,1.27.24.44.46.79.8,1.07.48.38.86-.09,1.14-.19.28-.1,1.43.57,1.9.95.48.38.33,1.66.33,2.28,0,.45.2,1.04.27,1.53-.15.28-.66.63-.72.8-.07.21.56.63.63,1.18.07.56-.84,2.16-1.11,2.3-.28.14-.49,1.39-.14,1.53.22.09.42.04.68.14.11.99.28,2.51.15,3.09-.14.63.07,2.54.14,2.71.07.17.21.77.21.77,0,0-.17.24.04.56.19.28.62.28,1.18.35,0,.22-.02.52-.13.99-.23,1.04-.52,1.88.08,4.62.4,1.85.93,2.69,1.06,3.79-.59.19-.68,1.12-.76,1.34-.09.27-.16.15-.4.27-.24.12-.34.77-.25,1.34.09.57.5.83.64.85.14.03.26-.07.36-.07.1,0,.12.24.34.43.22.2.44.17.67.15.23-.01,1.25-.02,1.76-.05.5-.03.93-.16.99-.39.06-.23-.08-.48-.21-.68.28-.33.44-1.33.32-1.66.13-.45-.12-.69-.38-.71-.07-.58-.25-1.39-.35-1.95-.16-.91.13-3.65.21-4.64.08-.99-.03-1.51.36-2.4.28-.65.73-1.89.68-2.95.15-.07.27-.13.27-.13,0,0,.28.83.56.8.04,0,.11-.02.18-.05.03.11.07.23.1.39-.02.18-.38.56-.45.85-.04.19-.09.7-.22,1.26-.49.15-1.31.75-1.19,1.63.12.89.7,1.88.9,2.37.21.49.26,2.17.28,2.84.02.66.1,1.86.94,2.7.84.84,2.97.33,3.17-1.44.19-1.77-.45-3.72-.68-4.12-.23-.4-.49-1.3-.47-1.6,0-.08,0-.21,0-.37.69-.52,1.77-1.44,2.07-1.89.31-.47.73-1.59.76-2.34.27.07.51.13.56.16.14.07.73-.07.73-.07,0,0-.1-.77-.14-.9-.03-.14-.03-1.39-.03-1.7s-.35-.94-.31-1.18c.03-.24,0-1.32,0-1.6,0-.22-.24-.81-.36-1.13.43,0,.89.02.98-.15.14-.28.21-.91.21-1.32s-.49-2.37-.7-2.78c-.06-.12-.18-.39-.33-.72,0-.02,0-.04-.01-.05-.62-1.76-.19-4.37-.24-4.9-.05-.52.29-2.04.57-2.9.28-.86,1.71,0,2.19-1.14.13-.31.17-.78.15-1.31.22-.15.44-.3.56-.41.38-.33,1.71-2.05,2.09-2.52.38-.48,1.14-3.57,1.28-4.61.14-1.05.05-1.95.05-1.95l-.38-.86s.48-.24.48-.62-.19-1.71,0-2c.19-.29.76-1.57.62-2.09-.14-.52-.67-1.85-.57-2.62.09-.76.86-2.33,1.28-3.57.32-.93,1.77-4.31,2.56-6.39.23.05.37.09.37.09,0,0,.16-1.24.27-1.45.11-.22.43-.75.43-1.13s.38-.64.22-1.07c-.16-.43-.16-.97,0-1.13.16-.16.64-1.13.7-1.61.11.48-.21,1.88-.27,2.31-.05.43-.54,3.44-.54,3.71s-.38,3.49-.16,3.98c.22.48.59,3.71.59,3.98s-.32,1.18-.32,1.4c0,.19.12,1,.19,1.4l-.56-.05c-.15,1.12-.75,5.46-.6,6.43.15.97,1.05,4.86,1.27,5.84.23.97.82,2.99.67,3.37-.15.37-.07,1.65.08,1.95.15.3.07,2.09.3,2.32.22.22.22,1.65.52,1.87.3.22-.3,1.2-.07,1.42.23.23.67.97.52,1.42-.15.45-.15,1.12-.15,1.35s-.37,1.72-.15,1.87c.22.15-.15,6.21,0,7.41.15,1.2,1.65,7.26,1.57,8.08-.07.82-.32,3.24-.47,3.59-.15.35-.15,1.65-.15,1.65,0,0-.75,2.19-.65,2.69.1.5,1.03,1.35,1.3,1.65.45.5.5,1.8,1.25,1.94.75.15,3.34.15,3.79.15s.7-1.25.7-1.4c.5-.3.95-.75,1.1-1.1.15-.35.2-1.05.55-1.25.35-.2.85-.55.95-.95.1-.4,0-.95-.15-1.35-.15-.4-.1-.95-.3-1.25-.2-.3.3-.6,0-1.25-.3-.65-2.24-5.04-2.19-6.04.05-1,.69-5.24.69-6.94s.06-4.78-.19-5.03c-.25-.25.65-.55.5-1.1-.15-.55.15-.9.3-1.55.15-.65.5-1.7.25-2.14-.25-.45.3-1.05.35-1.75.05-.7-.6-2.99-.4-3.29.2-.3.6-1.1.55-1.45-.05-.35-.35-.6-.35-.9s.6-4.34.6-4.34c0,0,.7,1.05.75,1.2.05.15.05.9.35,1.1.3.2,1.35.8,1.2,1.15-.15.35-.75,1.9-.6,2.14.15.25.75.95.85,1.15.1.2-.05,1.45.15,1.65.2.2,1,.45,1.1.75.1.3-.35.55-.3.85.05.3.4.5.3.8-.1.3-.4.5-.2.8.2.3.3.7.3,1.15s-.4,4.49-.6,5.54c-.2,1.05-.45,2.19-.35,2.94.1.75-.65,2.54-.45,2.94.2.4.2,1.99,0,2.39-.2.4-1.05,2.05-1.05,2.55s-.1,1.6.15,1.75c.25.15.2,1.2.25,1.54.05.35.5.55.5.55,0,0-.35,1.25.1,2.04.45.8,1.4,1.4,1.5,1.75.1.35-.2,1.4.65,1.9.85.5,3.69.4,4.89.15,1.2-.25,1.3-1.05,1.05-1.54-.25-.5-1.15-1.35-1.15-1.35,0,0,.3-.55.25-.95-.05-.4-.5-.65-.3-1.3.2-.65.25-1.4.55-1.8.3-.4,1.5-1.84,1.25-3.09-.25-1.25-.65-2.24-.7-2.99-.05-.75.25-6.38.5-8.68.25-2.29.15-4.84.15-4.84,0,0,.3-.35.35-.65.05-.3-.25-.75-.1-1,.15-.25.5-.8.5-1.05s-.45-.65-.4-.85c.05-.2.35-.65.4-1.4.05-.75.3-1.25.15-1.7-.15-.45-.15-.3-.3-.85-.15-.55-.1-1.74-.05-2.29.05-.55-.15-1.55-.2-2.04-.05-.5-.2-2.29-.2-2.29,0,0,.25-.75-.05-1.05-.3-.3-.25-.8-.3-1.1-.05-.3.2-4.29-1-6.08h-.16c-.05-.42-.41-1.19-.41-1.19,0,0,1.18-1.77.97-2.37-.21-.59-.81-4.62-.7-5.21.11-.59.54-3.17.48-3.82-.05-.64-.05-1.77-.22-2.36-.16-.59-.21-2.42-.21-2.42l.32,1.61s.27,1.13.32,1.83c.05.7.38,1.13.75,1.13.06,0,.16-.02.28-.06-.04.56-.05,1.29.14,2.35.26,1.42,1.22,4.25,1.32,5.03.1.78-.02,3.2-.09,3.6-.07.4-.54.87-.68,1.35-.14.48-.52,1.52-.56,1.88-.04.36-.28,1.82-.29,2.11-.01.29.18.81.09,1.11-.08.29-.29.82.09,1.07.38.26.95-.73.95-.73,0,0,.07.43.4.54.33.12,1.15.48,1.34.54.18.06.64-.49.65-.38,0,.11.42.25.59.13.17-.12.38-.57.38-.57,0,0,.31.23.53-.12.22-.34.32-1.28.51-2.06.19-.77.29-1.68.07-2.16-.22-.48-.39-1.23-.39-2.02,0-.79.14-2.13.1-3.57-.05-1.43.27-3.62.06-5.22-.15-1.19-.24-2.51-.62-3.88.03-.01.05-.02.06-.04.27-.22.48-.59.32-.91-.16-.32-.86-1.83-.81-2.26.05-.43.32-.91.22-1.07-.11-.16-1.18-.86-1.07-1.08.11-.21.64-1.13.48-1.45-.16-.32-.73-.81-.6-1.29.12-.48.01-1.72-.26-2.15-.27-.43-.86-3.76-1.24-4.73-.37-.97-1.67-2.53-1.93-2.96-.27-.43-1.45-1.45-1.77-1.61-.32-.16-1.02-1.29-1.61-1.24-.59.05-1.24-.11-1.77-.27-.54-.16-1.88-1.24-2.26-1.34-.38-.11-1.88-.27-1.88-.27,0,0,.43-.59.05-.65-.24-.03-.54-.46-.99-.82-.03-.34-.04-.79.09-1.21.01.11.12.13.12.13,0,0-.09-1.03.07-1.52.17-.5.3-1.49.11-2.43-.14-.72-.29-1.75-.53-2.44.07.08.13.14.18.17-.17-.24-.38-.6-.47-.94-.09-.34-.14-.68-1.14-1.23.17.05.47.07.47.07,0,0-.39-.34-.91-.44.33-.29.94-.18,1.19.09-.12-.34-.43-.46-.74-.47-.3,0-.6.06-.74.14.06-.13.36-.34.36-.34,0,0-.35.09-.49.31.04-.19.2-.4.2-.4,0,0-.24.17-.27.25.07-.29.31-.68.31-.68,0,0-.39.31-.47.6.02-.17.11-.58.11-.58,0,0-.21.22-.24.36.02-.23-.02-.65-.02-.65,0,0-.05.58-.13.7.03-.21-.19-.4-.19-.4,0,0,.07.34-.03.48-.06-.01-.13-.14-.13-.14-.02.1-.1.11-.16.06-.06-.05-.16-.31-.23-.35-.03.04-.2.03-.2.03,0,0-.22-.11-.28-.09-.06.02-.23.06-.28.02-.04-.04-.44-.1-.44-.1,0,0-.12.02-.15.02-.04,0-.23-.08-.23-.08l-.08.12s-.4-.09-.48-.09c.04.05,0,.13,0,.13,0,0-.38-.04-.93.1-.11.03-.22.06-.33.09-.25.02-.48.05-.69.11-.6.17-1.11.42-1.5.64,0,0,0,0,0,0h0c-.13.07-.25.14-.35.21-.16.04-.34.09-.46.15.04-.01.1.01.16.04-.02.01-.04.02-.06.03-.1.05-.27.12-.46.2-.03,0-.06,0-.09,0,0,.01.01.02.02.03-.26.11-.53.2-.67.19.03.01.05.03.08.05-.03,0-.06,0-.09-.01.04.05.16.1.28.14-.01.02-.05.08-.1.12-.09.02-.17.03-.25,0,.02.02.05.04.08.07-.15-.02-.26-.27-.26-.27,0,0,0,.23.1.4-.05-.02-.09-.03-.12-.06.04.08.06.2.06.2,0,0-.17.17-.27.11,0,.02.02.03.04.05-.05.02-.08.03-.08.03,0,0,.06,0,.14.02.05.04.11.07.16.09-.03.03-.06.06-.08.08-.15.04-.35.09-.44.05.05.06.17.12.32.16-.01.03-.02.07-.03.11-.14,0-.28,0-.34-.02.05.07.16.14.3.17-.3.23-.78,1-.78,1.24,0,.13-.08.54.13.93-.04.11-.08.22-.13.33-.19.45.28.95.6.78-.12.01-.71-.25-.49-.68.05-.1.09-.18.13-.25.08.11.19.21.33.3-.01.07-.03.13-.07.19.06-.04.1-.09.15-.14.09.05.19.1.31.14.02.64.09,1.27.11,1.47.02.39.15.72.33.94.18.22.21.48.16.78-.05.3-.31.84-.48,1.46-.18.62-.14.98.09,1.08.24.11.68.02.76.03.07.01.13.2.16.35.04.15-.01.22.02.36.04.14.29.26.46.31-.14.28.09.57.31.71.04.02.05.07.07.11-.67.4-3.08,1.82-3.43,1.92-.38.11-2.85,1.13-2.96,1.88-.11.75-1.02,3.49-.97,4.03.05.54-.32,2.42-.59,2.85-.27.43-.78,1.45-.65,1.99.14.54.65,1.45.59,1.77-.05.32-.64.59-.59,1.02.05.43-.54,1.13-.38,1.45.16.32-.21.54-.11.86.11.32-.43.54-.27.81.16.27-.05,1.18-.27,1.61-.22.43-.54,1.13-.27,1.29.04.02.21.08.48.15-.25,1.16-.43,2.5-.47,3.48-.05,1.38-.43,4.14-.57,4.9-.14.76-.48,1.66-.57,2.14-.09.48.05,1.81-.05,2.19-.1.38-1.05,2.81-1.05,3.09s.29,2.76.38,3.09c.1.33.52,1.66.67,1.95.14.28.48.28.48.28,0,0-.38,1.71-.62,2.47-.16.52-.96,1.41-1.67,2.1-.05-.07-.09-.12-.14-.15-.48-.24-1.62.38-1.95.43-.33.05-1.05.52-1.85.38-.42-.08-.96.06-1.42.2.48-.86.81-2.34.83-2.71.03-.44-.03-1.01-.03-1.27s.29-.82.32-1.01c.03-.19.1-2.19.06-2.63-.03-.44-1.01-1.24-1.55-1.74-.54-.51-2.25-1.27-2.98-1.3-.73-.03-2.63.79-3.52,1.58-.89.79-1.3,2.28-1.4,2.73-.1.44.76,2.35.76,2.35,0,0-.38.25-.44.54-.06.29.32,1.05.54,1.3.22.25.1.7.38.92.29.22.76.03.76.03,0,0,.44,1.21.48,1.71.02.36-.34.47-.66.58-.11-.16-.19-.28-.21-.32-.1-.19-.33.1-.62.24-.28.14-.9.29-1.24.19-.33-.1-1.09,0-1.43.19-.33.19-.95.05-1.28.05s-.76.43-.76.43c0,0-.76.33-.95.24-.1-.05-.42.02-.71.16-.03-.27-.1-.83-.2-1.26-.06-.24-.09-.59-.11-.92.09-.07.18-.14.23-.18.13-.08.73-.48.86-.64.13-.16.52-1.4.78-2.06.26-.66.27-.92.31-1.08.05-.33-.1-.73-.18-.93-.08-.2-.27-.92-.48-1.6-.21-.68-.58-1.66-.66-2.23-.09-.57-.12-.77-.41-1.24-.29-.46-1.02-1.79-1.43-3.01-.28-.84-.8-2.62-1.2-3.91.24-.21.32-.4.29-.6-.05-.27-.41-1.28-.5-1.47-.09-.18-.55-.23-.55-.23,0,0-.41-1.24-.64-1.61-.23-.37-.55-.04-.69-1.15-.14-1.1-1.65-4.73-1.7-5.64-.05-.92-.32-1.7-.51-2.02-.18-.32.32-2.2-.05-3.63-.06-.23-.13-.5-.2-.8.15-.4.27-1.05.1-1.56-.02-.05-.03-.09-.04-.14.14-.43.13-.82.11-1.06.1.41.4.71.55.76-.27-.25-.53-.98-.52-1.16.06.29.39.72.57.77-.16-.15-.47-.77-.44-.88.09.24.31.52.48.61-.1-.08-.22-.52-.22-.6s-.18-.27-.3-.44c-.11-.16-.09-.54-.08-.73.03.14.09.34.25.55.16.21.23.4.31.72.08.32.42.55.53.52-.09-.05-.41-.22-.44-.6,0-.06-.02-.13-.03-.2,0,.02.02.03.03.05,0-.01-.02-.03-.03-.05,0,0,0,0,0,0-.03-.13-.08-.28-.14-.42-.06-.29-.11-.65-.08-.91.05-.47-.08-.6-.18-.73-.1-.14-.18-.47-.15-.64.06.33.18.52.29.84.1.32.18.57.21.88.03-.3-.1-.85-.17-1.05-.07-.21-.14-.44-.17-.67.12.21.3.38.43.44.06.28.09.55.1.7.07-.24.07-.54.07-.54l.2.08s-.32-.4-.41-.87c-.09-.47-.37-.61-.46-.72-.09-.11-.14-.27-.11-.43.17.15.35.58.42.77-.06-.57-.48-1.33-.71-1.69-.23-.36-.35-.96-.45-1.19-.09-.23-.14-.79-.14-.79,0,0,.17.13.21.39.03.26.22.8.22.8,0,0-.09-.56-.1-.78-.01-.22-.22-.69-.57-1.1.18.15.51.25.67.25-.24-.08-.63-.53-.92-.84-.29-.31-.65-.4-.65-.4l.28-.02s-.17-.09-.29-.31c-.11-.22-.24-.96-.32-1.11-.08-.15-.44-.5-.44-.5l.15-.07c-.06-.02-.29-.4-.39-.65-.1-.25-.37-.61-.37-.61,0,0,.24.13.34.13-.1-.08-.3-.86-.39-1.17-.09-.31-.55-.76-.55-.76,0,0-.02-.11.08-.05-.11-.31-.56-.71-.56-.71,0,0,.23.14.4.28-.13-.3-.98-.8-.94-.8s.24,0,.41.09c-.08-.12-.43-.26-.59-.31-.16-.04-.27-.15-.42-.25-.07-.05-.14-.13-.21-.21.14.08.26.19.42.25.21.09.68.32.68.32,0,0-.14-.13-.19-.19-.06-.07-.17-.13-.25-.21-.08-.08-.29-.17-.41-.18-.13-.01-.36-.22-.49-.32-.14-.1-.63-.09-.72-.09s-.03-.08-.03-.08l.53-.06s-.39.01-.51-.06c-.11-.07-.26.06-.34.06s-.04.25-.04.25c0,0-.3-.05-.41-.07-.11-.02-.35-.01-.49-.02-.14-.01-.21.15-.36.17-.15.02-.22-.02-.22-.02,0,0-.01.16-.08.16s-.17-.07-.17-.07c0,0-.04.01-.09.02-.15-.15-.3-.21-.37-.23-.09-.04-.14.14-.14.14,0,0-.36.11-.39.15-.03.03-.33.32-.39.38-.06.06-.3.14-.5.2-.21.06-.26.32-.27.4-.01.08-.22.21-.3.26-.08.06-.21.34-.26.42-.06.08-.37.28-.55.64-.18.37-.51.38-.51.38,0,0-.03-.17-.02-.24-.05.07-.23.13-.34.21-.11.08-.28.37-.41.53-.14.16-.15.1-.23.15-.08.05-.15.25-.38.48-.23.23-.58.67-.72,1.06.06-.15.53-.7.68-.76-.54.6-.65,1.16-.66,1.52-.15.23-.34.52-.46.73-.2.34-.3,1.03-.23,1.82.07.79.41,1.43.41,1.43,0,0-.13-.46-.14-.78.1.42.42,1.14.61,1.41.03.19-.05.37-.16.54-.73.26-2.09.77-2.39,1.03-.41.37-4.77.96-5.05,1.15-.27.18-2.94,3.67-3.49,4.96-.55,1.29-1.51,3.44-1.88,4.73-.37,1.29-1.19,3.85-1.28,4.04-.09.18-1.84,3.35-1.88,3.58-.05.23-.23.64-.23.64,0,0-.32.05-.41.23-.09.18-.51,1.38-.51,1.56,0,.14.33.37.56.5-.33,1.2-.88,3.8-1.16,4.89-.32,1.24-.96,2.62-1.21,3.1-.25.48-.27.69-.32,1.26-.05.57-.34,1.58-.51,2.27-.16.69-.3,1.42-.37,1.63-.07.21-.18.62-.12.94ZM35.46,21.9c.07.13.13.34.18.56-.16-.19-.23-.47-.18-.56ZM35.03,22.75c.01.27.26.46.26.76,0,.15.06.46.14.75-.08-.17-.16-.32-.21-.41-.13-.22-.24-.93-.2-1.1ZM70.96,5.54c-.04-.14-.05-.3-.01-.5.11.01.09.23.01.5ZM71.33,6.05c-.09-.07-.18-.16-.25-.26.09-.16.15-.23.15-.23,0,0,.09.24.1.49ZM71.71,6.25c-.06-.02-.14-.06-.22-.1.08-.15.13-.32.14-.46,0,.05.03.26.08.5v.05ZM20.39,17.02c.07.2.01.62.12.95.1.33.17.76.05.96,0-.38-.18-.76-.25-1-.07-.24-.02-.62.09-.92ZM20.2,16.71c0,.21-.07.63-.08.95-.17-.59-.15-1.17-.02-1.64,0,0,.1.48.1.69ZM20.35,15.32s-.09.65,0,1.09c-.18-.4-.18-.78,0-1.09ZM20.89,13.41c-.01.16-.22.48-.32.54-.1.06-.11.22-.16.41-.01.06-.07.16-.14.28.11-.65.47-1.14.62-1.23ZM21.02,19.33c.01-.16-.1-.73-.1-1.11,0,0,.06.12.13.31.07.2.12.55-.02.8ZM25.93,9.05c-.06.01-.12.02-.16,0-.08-.03-.11-.09,0-.1.05,0,.11.04.17.1ZM28.79,8.96c-.16,0-.34.06-.34.06,0,0-.01-.15.02-.16.02,0,.17.04.31.1ZM30.66,18.65c-.07-.39-.07-.84.02-1.15,0,.09.03.39.09.55.06.16-.05.38-.12.6ZM31.12,20.25c-.03.13-.04.27-.05.41-.06-.26-.12-.51-.15-.65-.06-.31-.08-.8.01-1.08-.08.53.06,1.1.19,1.32ZM31.14,20.17s0,0,0,.01c-.1-.31-.13-.79-.05-.96.15.33.16.59.06.95ZM31.68,23.17c-.15-.07-.3-.14-.45-.22-.03-.39-.11-.87-.12-.95.1.16.16.44.19.56.04-.24-.19-.78-.13-1.07.03-.13,0-.38-.06-.64.03-.17.07-.37.09-.42-.06.34-.04,1.01.08,1.38-.07-.33.04-1.19.04-1.19,0,0,.01.55.02.72.01.17.07.6.17.86.06.15.12.59.16.96ZM31.95,22.55c.09.27.14.57.18.84-.06-.03-.11-.06-.17-.09,0-.29,0-.66,0-.75ZM31.77,20.41c-.04-.16-.09-.83-.1-1.15.1.26.18.91.1,1.15ZM32.63,20.88c-.08-.2-.14-1.11-.14-1.11.06.16.2.76.14,1.11ZM32.96,23.15c.1.27.16.55.19.8-.2-.13-.46-.28-.78-.44-.08-.48-.38-1.59-.38-1.86,0-.31-.09-.81-.09-.81,0,0,.2.75.3.91-.18-.61-.13-1.33-.11-1.36.01-.04.03.55.11.73-.05-.32.01-.83.01-.83,0,0,.04.42.09.63.06.21.11.48.08.75-.03.26.05.47.05.47,0,0,.05-.48.07-.59.08.25.05.59.02.7-.02.12.14.76.13,1.1.13-.33,0-.95,0-.95,0,0,.14.29.31.75ZM34.59,23.4c-.23-.52-.16-1.39-.23-1.7.11.09.18.56.18.81s.05.64.05.88ZM34.78,26.3c-.08-.41-.05-.75.04-.82.04.26.02.55-.04.82ZM34.53,27.23c.1-.16.19-.32.25-.47,0,.03.02.06.03.09.12.43.05,1.08-.02,1.4-.08-.32-.17-.67-.26-1.02ZM33.43,24.16s-.12-.1-.2-.15c.04-.56-.11-1.03-.24-1.27-.16-.29-.23-.99-.23-.99,0,0,.1.43.2.54-.08-.31-.15-1.17-.15-1.38.07.47.25.94.34,1.1-.19-.49-.26-1.7-.26-1.7,0,0,.1.44.23.82.13.38.53,1.3.6,2.02.07.72.55,1.56.67,2.18.09.5.22.85.34,1.23-.06.24-.14.44-.21.61-.33-1.3-.73-2.65-1.08-3.01ZM29.77,22.28c-.14-.54-.16-1.19-.1-1.35.07.19.15.68.2.95.03-.23-.03-.75-.11-1.02-.08-.28-.02-.72.01-1.03.13.24.2.84.16,1.22-.03.38.17.73.17.73,0,0-.09-.88-.04-1.14-.02.23.13.85.25,1.43.04.17.05.33.04.47-.2-.09-.39-.18-.59-.26ZM2.51,57.02c.14-.02.37-.25.37-.25,0,0,.21.05.31.06.06.17.15.61.11.83-.03.12-.05.47,0,.86-.32-.09-.75-.21-.75-.21,0,0,.37.05.37-.21s-.38-.54-.38-.54c0,0,.01-.43-.02-.53Z"/>
  </g>
</svg>