<?xml version="1.0" encoding="UTF-8"?>
<svg id="Layer_2" data-name="Layer 2" xmlns="http://www.w3.org/2000/svg" viewBox="0 0 39.68 101.27">
  <defs>
    <style>
      .cls-1 {
        fill: #7ec9a6;
      }
    </style>
  </defs>
  <g id="Layer_1-2" data-name="Layer 1">
    <path class="cls-1" d="M39.64,53.27c-.08-.56-.84-2.47-.86-3.58-.02-1.11-.82-8.38-.94-9.41-.12-1.03-1.21-4.46-1.67-5.51-.32-.73-.8-2.23-1.06-3.54.72-.34,1.25-.61,1.31-.68.18-.24-.48-1.66-.57-2.02-.09-.36-.42-1.84-.69-2.35-.27-.51-1.02-2.32-1.3-2.86-.27-.54-.9-1.6-1.15-2.05-.24-.45-.63-1.99-.9-2.23-.27-.24-2.17-.93-2.77-1.18-.6-.24-1.33-.66-1.93-.84-.6-.18-1.3-.78-1.66-.96-.36-.18-1.48-.27-1.87-.36-.03-.05-.07-.1-.11-.14,0-.03,0-.07.01-.1.18-.07.39-.09.58-.1.42-.01,1.52-.11,1.87-.26.35-.16.54-.62.56-.83.02-.2-.28-1.01-.24-1.2.04-.19.19-.4.22-.46.03-.06.08-.28-.21-.44v-.12s.35-.26.35-.34c0-.08-.11-.24-.11-.24,0,0,0-.48.2-.55.21-.07.66-.2.81-.34.15-.15.12-.37-.09-.82-.2-.45-.94-1.78-.96-1.94-.02-.16.26-.91.38-1.14.12-.23.11-.63.05-.88-.05-.21-.46-1.86-.6-2.44.18-.04.31-.14.36-.31-.28.14-.38-.1-.38-.1,0,0,.05-.05.11-.12-.19-.04-.29-.33-.29-.33l.11-.09s-.15-.06-.16-.17c-.01-.12-.28-.3-.37-.4-.09-.1-.35-.1-.47-.12-.08,0-.11-.06-.16-.1.1-.09.12-.21.12-.2,0,0,0,0-.02-.01-.01,0-.02,0-.03,0-.04.09-.11.14-.18.16-.07-.02-.18-.03-.25-.04-.04-.02-.08-.04-.11-.06,0-.03-.02-.08-.03-.11.08,0,.14,0,.14-.02,0,0,0-.01,0-.02s0-.02,0-.02c-.08,0-.16-.02-.23-.04-.05-.05-.12-.12-.19-.19-.01-.01-.02-.02-.04-.03.15,0,.26,0,.26-.02,0,0,0-.01,0-.02,0-.01,0-.02-.01-.02-.16,0-.32-.02-.48-.05-.13-.06-.29-.13-.41-.19-.24-.12-.54-.06-.54-.06,0,0-.13-.12-.25-.15-.12-.03-.24-.06-.17-.16-.07-.02-.19.11-.19.11,0,0-.23-.08-.4-.15-.05-.11.01-.24,0-.24,0,0,0,0-.02-.02-.01,0-.02-.01-.02,0-.05.05-.08.13-.08.21-.04-.01-.06-.03-.07-.03-.05-.03-.06.14-.06.14,0,0-.16-.04-.31-.1-.03-.01-.06-.02-.09-.02-.08-.08-.15-.17-.14-.18,0,0-.01,0-.02,0-.01,0-.02.01-.02.01.01.05.02.1.04.15-.03,0-.05,0-.04,0,.04,0,0,.19,0,.19,0,0-.12-.09-.2-.11-.03,0-.07.01-.13.04-.03-.14-.09-.28-.18-.29-.18-.03-.38.27-.38.27,0,0-.14.04-.24-.07-.11-.11-.37-.13-.5-.05-.36-.25-.78-.22-.96-.03,0,0-.01,0-.02,0-.44-.16-.77.13-.86.43-.03,0-.06-.01-.09-.02-.05-.01-.09-.02-.14-.02-.01-.04-.02-.07-.02-.06,0,0-.01,0-.02,0-.01,0-.02,0-.02,0,0,.02,0,.04,0,.06-.42-.02-.77.21-.75.22,0,0,0,.02,0,.03,0,.01.02.02.03.01.24-.15.49-.17.74-.13,0,.01,0,.03.02.04-.2.11-.5.26-.59.27-.09.01-.23.14-.32.26-.03.01-.06.02-.08.04-.23.09-.47.12-.47.13,0,0,0,.01,0,.02,0,.01,0,.02,0,.02.15,0,.3,0,.45-.03-.08.12-.24.24-.36.28-.15.05-.27.26-.27.26,0,0,.14-.12.17-.07.03.06-.04.22-.1.24-.36.07-.56.37-.47.72-.04.04-.08.08-.11.12-.09.1-.16.3-.19.49-.02.03-.04.05-.06.08-.13.14-.35.14-.35.14,0,0,0,.01,0,.02,0,.01,0,.02,0,.02.14.04.28,0,.4-.06v.03c-.52.4-.54,1.01-.44,1.29-.01.05-.03.1-.04.15-.13.43-.08,1.13,0,1.43,0-.12.06-.34.06-.34,0,0,0,.04.03.1,0,.4-.02.9-.02.89,0,0,.01.01.02.01.01,0,.02,0,.02,0,.02-.16.05-.32.07-.47.02.11.04.21.04.24,0,.06-.01.24-.03.42-.02.07-.04.15-.06.22-.09.32-.06.66-.05.65,0,0,.01,0,.02,0,.01,0,.02,0,.02-.01,0-.09.01-.18.03-.27.04.12.09.22.09.22,0,0,.02-.25.09-.27.07-.02.1.28.06.37-.29.49-.15.7-.02.96-.06-.16-.01-.34-.01-.34,0,0,.07.13.16.28-.04.47.06.88.09.87,0,0,.02.01.03,0,0,0,0,0,.01,0,.02.15.06.28.12.4,0-.08.02-.16.04-.23,0,.07,0,.14,0,.21,0,.21-.06.35-.05.35,0,0,0,.02.02.02.01,0,.03,0,.03,0,.08-.25.1-.51.09-.76,0,0,.01-.02.02-.02,0,.01,0,.02.01.03.03.36.09.63.09.63,0,0,.01.01.03.01.01,0,.02-.01.02-.02,0-.06-.01-.12-.02-.18,0,.01,0,.03.01.04.12.46.45.8.45.8,0,0,.02,0,.03,0,0,0,.01-.02.01-.03-.21-.26-.33-.58-.37-.91.06.05.12.08.18.12-.13.37.04.61.23.68-.01.02-.02.03-.02.03,0,0,.03.02.1,0,.06.01.11,0,.15-.02-.02,0-.04-.02-.05-.03.02-.01.03-.03.05-.05.09.33.03.62.01.62,0,0,0,.01.02.02-.07.19-.15.3-.16.3,0,0,0,.02,0,.03.01,0,.02,0,.03,0,.16-.19.26-.41.31-.63,0,0,.02,0,.03-.02,0,0,0,.02,0,.03-.11.4-.24.8-.28.77,0,0,0,.02.01.02.01,0,.02,0,.03,0,.1-.13.18-.27.24-.41,0,0,0,0,.02,0,.02,0,.05-.01.09-.03.01.05.02.11.02.16,0,.05,0,.11,0,.17-.02.16-.08.24-.07.24,0,0,0,.02.01.03.01,0,.02,0,.03,0,.01-.02.02-.04.03-.06-.02,1.03-.23,2.08-.57,2.94-1.09.06-1.39.56-1.64.98-1.6.09-6.99,2.68-7.66,3.26-.66.57-.94,1.9-1.18,2.47-.24.57-1.15,4.1-1.51,5.13-.36,1.02-1.51,4.1-1.42,4.46.02.1.47.27,1.11.48-.11,1.17-.27,3.35-.49,4.19-.27,1.05-1.15,4.07-1.48,5.48-.33,1.41-.36,4.03-.37,5.5-.01,1.47-.12,3.76-.24,4.42-.11.66-.76,1.83-.94,2.4-.18.56-.3,1.25-.32,1.63-.02.38-.24,1.51-.13,1.77.11.26.61.73.76.84.15.11.31.09.31.09,0,0,.04.35.25.54.2.19.46.44.56.5.1.05.32-.01.32-.01,0,0,.45.72.67.83.21.11.77.05.95-.15.07.17.15.33.2.39.14.19.46.4.62.33.15-.07.23-.71.22-.89,0-.18-.06-.62,0-1.09.11.23.3.35.43.38.13.04.3.01.3-.21,0-.23-.1-.74-.04-1,.06-.25.21-.47.25-.85.05-.37.12-1.53.22-2.01.1-.48-.04-1.12-.48-2.12-.45-1-.6-1.37-.29-3.39.31-2.02.62-3.99,1.01-5.14.39-1.16.67-2.06.8-2.71.12-.64.42-2.62.73-3.6.29-.88,1.14-3.24,1.45-4.79.03,0,.06,0,.07,0,.26-.08.25-.18.24-.2.01.04.16.49.36.84.21.36.15,1.39,0,2.05-.15.66-.87,2.65-1.06,3.23-.18.57-.27,1.02-.18,1.84.09.81-.03,1.66-.24,2.53-.21.87-.21,1.78-.39,2.47-.18.69-.12,2.83-.27,3.26-.15.42.03.66-.06,1.45-.09.78.18.96.18.96h.34c-.07.3-.11.57-.06.66.09.15-.21.6-.21.72s0,.3-.09.54c-.09.24-.12.39-.12.39,0,0-.21.63-.18.81.03.18-.06.57-.09.81-.03.24,0,.84,0,.96s.21.39.24.54c.03.15-.24.6-.24.75s.09,1.17,0,1.42c-.09.24-.24,2.62-.24,3.05s.06,1.81.06,2.08-.45,1.15-.42,1.27c.03.12.45.18.39.75-.06.57-.81,3.23-.6,3.56.21.33,1.12.48,1.24.66.12.18-.78,1.66-.75,1.9.03.24.72,1.09.81,1.3.09.21,0,2.14.21,2.5.21.36.81,1.33.78,1.69-.03.36.69,1.66.69,1.66,0,0-.39,2.83-.66,4.58-.27,1.75-.24,3.53-.09,4.07.15.54,1.24,1.51,1.48,1.54.24.03.45.15.45.3,0,.13.09,1.5.12,1.83-.51.75-1.18,2.04-1.42,2.72-.3.84-.36,2.25-.34,2.61.02.36.22,1.41,1,1.71.78.3,2.39.14,2.85-.34.46-.48,1.67-1.47,1.97-2.33.3-.86.34-1.37.42-1.81.05-.27.64-1.61,1.1-2.63.06-.04.1-.07.12-.1.18-.3,1-1.81,1.36-2.14.36-.33.87-1.57.97-1.72.09-.15,0-.51,0-.51,0,0,.27-1.87.21-2.26-.06-.39-.15-2.35-.45-2.83-.3-.48-1.96-3.19-1.96-3.19,0,0-.3-1.63-.27-1.99.03-.36.09-.9.09-1.18s-.9-2.71-.78-2.89c.12-.18.75-.6.78-.87.03-.27.12-.84.24-1.03.12-.18.81-1.6.84-1.78.03-.18-.24-3.17-.24-3.44s-.12-2.11-.12-2.11c0,0,.33-.48.36-.57.03-.09.06-.36.06-.36l.6-2.05s.21.33.36.9c.15.57.45,2.29.45,2.83s.48,2.32.48,2.71.66,5.37.66,5.76.87,2.11.87,2.11c0,0-.06.72-.42,1.33-.36.6-.45,4.46-.54,5.16-.09.69-.36,3.86-.6,4.49-.24.63-.18,3.14-.24,3.8-.06.66.15,3.47.15,3.47,0,0-.75.66-.72,1.02.03.36.45.94.39,1.18-.06.24-.15,1.99,0,2.26s.93.81,1.03.96c.03.04.1.11.19.17,0,.2-.01,1.29.08,1.43.1.16.5.6.92.6h2.49c.18,0,2.21-.12,2.41-.22.2-.1.26-.42.32-.66.06-.24.04-.84.06-.9,0-.02.03-.13.06-.27.27-.04.45-.08.48-.12.18-.24.45-1.24.24-1.72-.21-.48-.69-1-.57-1.39.12-.39,1.48-1.75,1.57-2.05.09-.3.18-6.06.24-7.42.06-1.36.33-6.9.51-7.3.18-.39-.03-1.3.06-1.57.09-.27.33-1.03.27-1.54-.06-.51.3-2.56.24-3.23-.06-.66.12-3.02,0-3.62-.12-.6.03-4.25,0-5-.03-.75.75-5.97.72-6.57-.03-.6.15-3.56.15-3.86v-1.24l-.05-.63c.4-.05.69-.1.73-.13.15-.09.09-1.6.03-2.23-.06-.63-1-3.23-1.06-3.62-.06-.39-.18-2.71-.27-3.44-.09-.72-.78-3.2-.84-3.74-.06-.54-.06-1.84-.03-2.29.03-.45-.09-2.59-.06-2.99.03-.39,0-1.45,0-1.45,0,0,.33.6.6.78.16.11.35.13.56.14.36,1.12,1.03,2.81,1.17,3.21.18.51,1.39,4.13,1.78,5.13.39.99,1.2,3.38,1.48,4.1.28.72.86,2.51.9,3.02.04.5-.1.84-.44,1.27-.34.42-.58,1.39-.4,1.89.18.5.42,1.13.44,1.65.02.52.06,1.55.7,1.51.64-.04.76-.7.7-.92-.06-.22-.22-.8-.22-1.21.12.16.28.34.28.34,0,0,.36.8.64,1.01,0,.46.22,1.06.22,1.06,0,0-.16.48-.2.7-.2.14-.72.66-.88.76-.16.1-.88.18-.96.28-.08.1-.26.4-.18.58.08.18.68.04.68.04,0,0,.04.38.22.42.18.04,1-.4,1-.4,0,0,.16.44.42.44s.32-.56.54-.86c.22-.3.72-.66.84-.9s.36-1.41.48-1.83c.12-.42.18-.46.1-1.02ZM14.68,4.9c-.02-.18,0-.4.07-.5-.01.15,0,.26-.07.5ZM15.29,10.05c-.05-.22-.05-.44-.02-.66.03.04.06.08.09.12-.05.2-.07.38-.06.54ZM15.48,2.79c.04-.29.23-.4.22-.3,0,.08-.11.19-.22.3ZM16.31,11.11c-.12-.14-.1-.29-.03-.36.02.03.04.07.06.11,0,.01.01.02.02.04,0,.09-.02.16-.05.22ZM16.61,10.85s0,0,0,0c0,0,0,0,0,0,0,0,0,0,0,0ZM16.59,11.41s0,0,0,0c0-.09,0-.18-.02-.27.01.03.03.06.04.09,0,0,0,0,0,0,0,.06-.01.12-.02.17ZM16.75,11.19s0-.01,0-.02c0,0,0,0,0,0,0-.05.01-.1.02-.15,0,.05.01.09.02.14,0,.01-.02.03-.03.04ZM16.78,11.74s0-.03.01-.04c0,0,0,0,0,.01,0,0-.01.02-.02.03ZM3.43,59.46c-.05-.14-.02-.59,0-.94.02-.35.11-1.04.21-1.11.09-.07.02.89-.03,1.13-.04.24-.03.71-.04.78,0,.03.05.17.11.35-.11-.09-.23-.16-.25-.22ZM20.66.24s.06.09.08.17c-.05.03-.1.04-.14.04-.11-.01-.02-.23.06-.21ZM19.34.39s-.18-.05-.67-.22c.44-.17.67.22.67.22ZM18.42.45c-.08.09-.44.13-.57.14-.02,0-.03,0-.05-.01.26-.4.7-.23.62-.13Z"/>
  </g>
</svg>